<?xml version="1.0" encoding="utf-8"?>
<!-- Generator: Adobe Illustrator 25.1.0, SVG Export Plug-In . SVG Version: 6.00 Build 0)  -->
<svg version="1.1" id="Ebene_1" xmlns="http://www.w3.org/2000/svg" xmlns:xlink="http://www.w3.org/1999/xlink" x="0px" y="0px"
	 viewBox="0 0 200 100" style="enable-background:new 0 0 200 100;" xml:space="preserve">
<style type="text/css">
	.st0{clip-path:url(#SVGID_2_);}
	.st1{clip-path:url(#SVGID_4_);}
	.st2{enable-background:new    ;}
	.st3{fill:#2B2B2A;}
	.st4{clip-path:url(#SVGID_6_);fill:none;stroke:#E52329;stroke-width:2.0029;}
	.st5{clip-path:url(#SVGID_8_);fill:none;stroke:#E1E1E1;stroke-width:2.0029;}
</style>
<g>
	<defs>
		<rect id="SVGID_1_" x="11.5" y="-2" width="177" height="91.8"/>
	</defs>
	<clipPath id="SVGID_2_">
		<use xlink:href="#SVGID_1_"  style="overflow:visible;"/>
	</clipPath>
	<g class="st0">
		<g>
			<defs>
				<rect id="SVGID_3_" x="11.5" y="-2" width="177" height="91.8"/>
			</defs>
			<clipPath id="SVGID_4_">
				<use xlink:href="#SVGID_3_"  style="overflow:visible;"/>
			</clipPath>
			<g class="st1">
				<g class="st2">
					<path class="st3" d="M49,46c0,1.3-0.2,2.5-0.5,3.5c-0.3,1-0.8,1.9-1.3,2.7s-1.2,1.4-1.9,2c-0.7,0.5-1.5,1-2.2,1.3
						c-0.8,0.3-1.6,0.6-2.4,0.8c-0.8,0.2-1.6,0.2-2.3,0.2H24.9c-1,0-2.2-0.2-3.4-0.5c-1.2-0.4-2.4-1-3.4-1.8c-1-0.8-1.9-1.9-2.6-3.3
						c-0.7-1.3-1.1-3-1.1-4.9V35.8c0-1.9,0.4-3.6,1.1-4.9c0.7-1.3,1.6-2.4,2.6-3.3c1-0.8,2.2-1.4,3.4-1.8c1.2-0.4,2.4-0.5,3.4-0.5
						h13.5c1.9,0,3.6,0.3,4.9,1c1.3,0.7,2.4,1.6,3.3,2.6c0.8,1,1.4,2.2,1.8,3.4c0.4,1.2,0.6,2.4,0.6,3.4V46z M41.5,35.9
						c0-1-0.3-1.8-0.8-2.3c-0.5-0.5-1.3-0.8-2.3-0.8H25c-1,0-1.8,0.3-2.3,0.8c-0.5,0.5-0.8,1.3-0.8,2.2V46c0,1,0.3,1.7,0.8,2.3
						C23.2,48.8,24,49,25,49h13.5c1,0,1.8-0.3,2.3-0.8s0.8-1.3,0.8-2.3V35.9z"/>
					<path class="st3" d="M89.3,46c0,1.3-0.2,2.5-0.5,3.5c-0.3,1-0.8,1.9-1.3,2.7s-1.2,1.4-1.9,2c-0.7,0.5-1.5,1-2.2,1.3
						c-0.8,0.3-1.6,0.6-2.4,0.8c-0.8,0.2-1.6,0.2-2.3,0.2H65.2c-1,0-2.2-0.2-3.4-0.5c-1.2-0.4-2.4-1-3.4-1.8c-1-0.8-1.9-1.9-2.6-3.3
						c-0.7-1.3-1.1-3-1.1-4.9V35.8c0-1.9,0.4-3.6,1.1-4.9c0.7-1.3,1.6-2.4,2.6-3.3c1-0.8,2.2-1.4,3.4-1.8c1.2-0.4,2.4-0.5,3.4-0.5
						h13.5c1.9,0,3.6,0.3,4.9,1c1.3,0.7,2.4,1.6,3.3,2.6c0.8,1,1.4,2.2,1.8,3.4c0.4,1.2,0.6,2.4,0.6,3.4V46z M81.8,35.9
						c0-1-0.3-1.8-0.8-2.3c-0.5-0.5-1.3-0.8-2.3-0.8H65.3c-1,0-1.8,0.3-2.3,0.8c-0.5,0.5-0.8,1.3-0.8,2.2V46c0,1,0.3,1.7,0.8,2.3
						c0.5,0.5,1.3,0.8,2.3,0.8h13.5c1,0,1.8-0.3,2.3-0.8s0.8-1.3,0.8-2.3V35.9z"/>
					<path class="st3" d="M130.3,56.5h-7.5V39.2c0-1-0.2-1.9-0.5-2.6s-0.8-1.4-1.4-2c-0.6-0.6-1.3-1-2-1.3c-0.8-0.3-1.6-0.4-2.5-0.4
						h-13.1v23.7h-7.5V29c0-0.5,0.1-1,0.3-1.5c0.2-0.5,0.5-0.8,0.8-1.2c0.3-0.3,0.8-0.6,1.2-0.8c0.5-0.2,1-0.3,1.5-0.3h16.9
						c0.9,0,1.9,0.1,3,0.3s2.1,0.6,3.1,1c1,0.5,2,1.1,2.9,1.8c0.9,0.7,1.8,1.6,2.5,2.6c0.7,1,1.3,2.2,1.7,3.6
						c0.4,1.3,0.6,2.9,0.6,4.6V56.5z"/>
					<path class="st3" d="M144.5,56.5H137V25.3h7.5V56.5z"/>
					<path class="st3" d="M185.6,46c0,1.3-0.2,2.5-0.5,3.5c-0.3,1-0.8,1.9-1.3,2.7s-1.2,1.4-1.9,2c-0.7,0.5-1.5,1-2.2,1.3
						s-1.6,0.6-2.4,0.8c-0.8,0.2-1.6,0.2-2.3,0.2h-13.5c-1,0-2.2-0.2-3.4-0.5c-1.2-0.4-2.4-1-3.4-1.8c-1-0.8-1.9-1.9-2.6-3.3
						s-1.1-3-1.1-4.9V35.8c0-1.9,0.4-3.6,1.1-4.9s1.6-2.4,2.6-3.3c1-0.8,2.2-1.4,3.4-1.8c1.2-0.4,2.4-0.5,3.4-0.5h13.5
						c1.9,0,3.6,0.3,4.9,1c1.3,0.7,2.4,1.6,3.3,2.6c0.8,1,1.4,2.2,1.8,3.4c0.4,1.2,0.6,2.4,0.6,3.4V46z M178.1,35.9
						c0-1-0.3-1.8-0.8-2.3c-0.5-0.5-1.3-0.8-2.3-0.8h-13.5c-1,0-1.8,0.3-2.3,0.8c-0.5,0.5-0.8,1.3-0.8,2.2V46c0,1,0.3,1.7,0.8,2.3
						c0.5,0.5,1.3,0.8,2.3,0.8h13.5c1,0,1.8-0.3,2.3-0.8s0.8-1.3,0.8-2.3V35.9z"/>
				</g>
			</g>
		</g>
		<g>
			<defs>
				<rect id="SVGID_5_" x="11.5" y="-2" width="177" height="91.8"/>
			</defs>
			<clipPath id="SVGID_6_">
				<use xlink:href="#SVGID_5_"  style="overflow:visible;"/>
			</clipPath>
			<line class="st4" x1="11.5" y1="88.8" x2="68.3" y2="88.8"/>
		</g>
		<g>
			<defs>
				<rect id="SVGID_7_" x="11.5" y="-2" width="177" height="91.8"/>
			</defs>
			<clipPath id="SVGID_8_">
				<use xlink:href="#SVGID_7_"  style="overflow:visible;"/>
			</clipPath>
			<line class="st5" x1="68.3" y1="88.8" x2="188.2" y2="88.8"/>
		</g>
	</g>
</g>
</svg>
