<?xml version="1.0" encoding="utf-8"?>
<!-- Generator: Adobe Illustrator 25.1.0, SVG Export Plug-In . SVG Version: 6.00 Build 0)  -->
<svg version="1.1" id="Ebene_1" xmlns="http://www.w3.org/2000/svg" xmlns:xlink="http://www.w3.org/1999/xlink" x="0px" y="0px"
	 viewBox="0 0 200 100" style="enable-background:new 0 0 200 100;" xml:space="preserve">
<style type="text/css">
	.st0{display:none;}
	.st1{display:inline;}
	.st2{clip-path:url(#SVGID_2_);}
	.st3{clip-path:url(#SVGID_4_);}
	.st4{fill:#2B2B2A;}
	.st5{font-family:'Audiowide-Regular';}
	.st6{font-size:59.1347px;}
	.st7{clip-path:url(#SVGID_6_);fill:none;stroke:#E52329;stroke-width:2.0029;}
	.st8{clip-path:url(#SVGID_8_);fill:none;stroke:#E1E1E1;stroke-width:2.0029;}
	.st9{clip-path:url(#SVGID_10_);}
	.st10{clip-path:url(#SVGID_12_);}
	.st11{enable-background:new    ;}
	.st12{fill:#FFFFFF;}
	.st13{clip-path:url(#SVGID_14_);fill:none;stroke:#E52329;stroke-width:1.7882;}
	.st14{clip-path:url(#SVGID_16_);fill:none;stroke:#E1E1E1;stroke-width:1.7882;}
</style>
<g id="Bildmaterial_13_1_" class="st0">
	<g class="st1">
		<g>
			<defs>
				<rect id="SVGID_1_" x="11.5" y="-2" width="177" height="91.8"/>
			</defs>
			<clipPath id="SVGID_2_">
				<use xlink:href="#SVGID_1_"  style="overflow:visible;"/>
			</clipPath>
			<g class="st2">
				<g>
					<defs>
						<rect id="SVGID_3_" x="11.5" y="-2" width="177" height="91.8"/>
					</defs>
					<clipPath id="SVGID_4_">
						<use xlink:href="#SVGID_3_"  style="overflow:visible;"/>
					</clipPath>
					<g class="st3">
						<text transform="matrix(1 0 0 1 11.5 56.5283)" class="st4 st5 st6">oonıo</text>
					</g>
				</g>
				<g>
					<defs>
						<rect id="SVGID_5_" x="11.5" y="-2" width="177" height="91.8"/>
					</defs>
					<clipPath id="SVGID_6_">
						<use xlink:href="#SVGID_5_"  style="overflow:visible;"/>
					</clipPath>
					<line class="st7" x1="11.5" y1="88.8" x2="68.3" y2="88.8"/>
				</g>
				<g>
					<defs>
						<rect id="SVGID_7_" x="11.5" y="-2" width="177" height="91.8"/>
					</defs>
					<clipPath id="SVGID_8_">
						<use xlink:href="#SVGID_7_"  style="overflow:visible;"/>
					</clipPath>
					<line class="st8" x1="68.3" y1="88.8" x2="188.2" y2="88.8"/>
				</g>
			</g>
		</g>
	</g>
</g>
<g id="Bildmaterial_27_1_">
	<g>
		<g>
			<defs>
				<rect id="SVGID_9_" x="11" y="-2.1" width="177.9" height="92.1"/>
			</defs>
			<clipPath id="SVGID_10_">
				<use xlink:href="#SVGID_9_"  style="overflow:visible;"/>
			</clipPath>
			<g class="st9">
				<g>
					<defs>
						<rect id="SVGID_11_" x="11" y="-2.1" width="177.9" height="92.1"/>
					</defs>
					<clipPath id="SVGID_12_">
						<use xlink:href="#SVGID_11_"  style="overflow:visible;"/>
					</clipPath>
					<g class="st10">
						<g class="st11">
							<path class="st12" d="M48.7,46.1c0,1.3-0.2,2.5-0.5,3.5c-0.3,1-0.8,1.9-1.3,2.7s-1.2,1.4-1.9,2c-0.7,0.6-1.5,1-2.2,1.3
								c-0.8,0.3-1.6,0.6-2.4,0.8s-1.6,0.2-2.3,0.2H24.5c-1,0-2.2-0.2-3.4-0.6s-2.4-1-3.4-1.8c-1.1-0.8-1.9-1.9-2.6-3.3
								c-0.7-1.3-1.1-3-1.1-4.9V35.9c0-1.9,0.4-3.6,1.1-4.9c0.7-1.3,1.6-2.4,2.6-3.3s2.2-1.4,3.4-1.8c1.2-0.4,2.4-0.6,3.4-0.6h13.6
								c1.9,0,3.6,0.3,4.9,1c1.4,0.7,2.4,1.6,3.3,2.6c0.8,1.1,1.4,2.2,1.8,3.4c0.4,1.2,0.6,2.4,0.6,3.4V46.1z M41.1,36
								c0-1-0.3-1.8-0.8-2.3c-0.5-0.5-1.3-0.8-2.3-0.8H24.5c-1,0-1.8,0.3-2.3,0.8c-0.5,0.5-0.8,1.3-0.8,2.2v10.2
								c0,1,0.3,1.7,0.8,2.3c0.5,0.5,1.3,0.8,2.3,0.8h13.6c1,0,1.8-0.3,2.3-0.8c0.5-0.5,0.8-1.3,0.8-2.3V36z"/>
							<path class="st12" d="M89.2,46.1c0,1.3-0.2,2.5-0.5,3.5c-0.3,1-0.8,1.9-1.3,2.7s-1.2,1.4-1.9,2c-0.7,0.6-1.5,1-2.2,1.3
								c-0.8,0.3-1.6,0.6-2.4,0.8s-1.6,0.2-2.3,0.2H65c-1,0-2.2-0.2-3.4-0.6s-2.4-1-3.4-1.8c-1.1-0.8-1.9-1.9-2.6-3.3
								c-0.7-1.3-1.1-3-1.1-4.9V35.9c0-1.9,0.4-3.6,1.1-4.9c0.7-1.3,1.6-2.4,2.6-3.3s2.2-1.4,3.4-1.8c1.2-0.4,2.4-0.6,3.4-0.6h13.6
								c1.9,0,3.6,0.3,4.9,1c1.4,0.7,2.4,1.6,3.3,2.6c0.8,1.1,1.4,2.2,1.8,3.4c0.4,1.2,0.6,2.4,0.6,3.4V46.1z M81.7,36
								c0-1-0.3-1.8-0.8-2.3c-0.5-0.5-1.3-0.8-2.3-0.8H65.1c-1,0-1.8,0.3-2.3,0.8c-0.5,0.5-0.8,1.3-0.8,2.2v10.2
								c0,1,0.3,1.7,0.8,2.3c0.5,0.5,1.3,0.8,2.3,0.8h13.6c1,0,1.8-0.3,2.3-0.8c0.5-0.5,0.8-1.3,0.8-2.3V36z"/>
							<path class="st12" d="M130.4,56.7h-7.5V39.3c0-1-0.2-1.9-0.5-2.7c-0.3-0.8-0.8-1.5-1.4-2c-0.6-0.6-1.3-1-2-1.3
								c-0.8-0.3-1.6-0.4-2.5-0.4h-13.2v23.8h-7.5V29.1c0-0.5,0.1-1,0.3-1.5c0.2-0.5,0.5-0.9,0.8-1.2s0.8-0.6,1.2-0.8
								c0.5-0.2,1-0.3,1.5-0.3h17c0.9,0,1.9,0.1,3,0.3c1.1,0.2,2.1,0.6,3.1,1c1,0.5,2,1.1,3,1.8c0.9,0.7,1.8,1.6,2.5,2.6
								c0.7,1,1.3,2.2,1.7,3.6c0.4,1.4,0.6,2.9,0.6,4.6V56.7z"/>
							<path class="st12" d="M144.7,56.7h-7.5V25.4h7.5V56.7z"/>
							<path class="st12" d="M186,46.1c0,1.3-0.2,2.5-0.5,3.5c-0.3,1-0.8,1.9-1.3,2.7s-1.2,1.4-1.9,2s-1.5,1-2.2,1.3
								s-1.6,0.6-2.4,0.8s-1.6,0.2-2.3,0.2h-13.6c-1,0-2.2-0.2-3.4-0.6c-1.2-0.4-2.4-1-3.4-1.8c-1.1-0.8-1.9-1.9-2.6-3.3
								c-0.7-1.3-1.1-3-1.1-4.9V35.9c0-1.9,0.4-3.6,1.1-4.9c0.7-1.3,1.6-2.4,2.6-3.3c1.1-0.8,2.2-1.4,3.4-1.8
								c1.2-0.4,2.4-0.6,3.4-0.6h13.6c1.9,0,3.6,0.3,4.9,1c1.4,0.7,2.4,1.6,3.3,2.6c0.8,1.1,1.4,2.2,1.8,3.4
								c0.4,1.2,0.6,2.4,0.6,3.4V46.1z M178.5,36c0-1-0.3-1.8-0.8-2.3c-0.5-0.5-1.3-0.8-2.3-0.8h-13.6c-1,0-1.8,0.3-2.3,0.8
								c-0.5,0.5-0.8,1.3-0.8,2.2v10.2c0,1,0.3,1.7,0.8,2.3c0.5,0.5,1.3,0.8,2.3,0.8h13.6c1,0,1.8-0.3,2.3-0.8
								c0.5-0.5,0.8-1.3,0.8-2.3V36z"/>
						</g>
					</g>
				</g>
				<g>
					<defs>
						<rect id="SVGID_13_" x="11" y="-2.1" width="177.9" height="92.1"/>
					</defs>
					<clipPath id="SVGID_14_">
						<use xlink:href="#SVGID_13_"  style="overflow:visible;"/>
					</clipPath>
					<line class="st13" x1="11" y1="89.1" x2="68.1" y2="89.1"/>
				</g>
				<g>
					<defs>
						<rect id="SVGID_15_" x="11" y="-2.1" width="177.9" height="92.1"/>
					</defs>
					<clipPath id="SVGID_16_">
						<use xlink:href="#SVGID_15_"  style="overflow:visible;"/>
					</clipPath>
					<line class="st14" x1="68.1" y1="89.1" x2="188.5" y2="89.1"/>
				</g>
			</g>
		</g>
	</g>
</g>
</svg>
